<?xml version="1.0" standalone="no"?>
<svg xmlns="http://www.w3.org/2000/svg" version="1.1" width="212" height="212">
	<!-- Created with https://api.qrserver.com (QR Code API, see goQR.me/api for information) -->
	<title>QR Code</title>
	<desc>BEGIN:VCARD
VERSION:2.1
FN:Dominik Bial
N:Bial;Dominik
TEL;CELL:01737279023
EMAIL;WORK;INTERNET:dominik.bial@opitz-consulting.com
URL:www.opitz-consulting.com
ORG:OPITZ CONSULTING Deutschland GmbH
END:VCARD
</desc>
	<rect style="fill:rgb(255, 255, 255);fill-opacity:1" x="0" y="0" width="212" height="212" />
	<g id="elements">
		<path style="fill:rgb(0, 0, 0)" d="M 0,0 l 4,0 0,4 -4,0 z M 4,0 l 4,0 0,4 -4,0 z M 8,0 l 4,0 0,4 -4,0 z M 12,0 l 4,0 0,4 -4,0 z M 16,0 l 4,0 0,4 -4,0 z M 20,0 l 4,0 0,4 -4,0 z M 24,0 l 4,0 0,4 -4,0 z M 40,0 l 4,0 0,4 -4,0 z M 48,0 l 4,0 0,4 -4,0 z M 52,0 l 4,0 0,4 -4,0 z M 60,0 l 4,0 0,4 -4,0 z M 72,0 l 4,0 0,4 -4,0 z M 76,0 l 4,0 0,4 -4,0 z M 80,0 l 4,0 0,4 -4,0 z M 84,0 l 4,0 0,4 -4,0 z M 96,0 l 4,0 0,4 -4,0 z M 108,0 l 4,0 0,4 -4,0 z M 120,0 l 4,0 0,4 -4,0 z M 128,0 l 4,0 0,4 -4,0 z M 140,0 l 4,0 0,4 -4,0 z M 144,0 l 4,0 0,4 -4,0 z M 148,0 l 4,0 0,4 -4,0 z M 168,0 l 4,0 0,4 -4,0 z M 184,0 l 4,0 0,4 -4,0 z M 188,0 l 4,0 0,4 -4,0 z M 192,0 l 4,0 0,4 -4,0 z M 196,0 l 4,0 0,4 -4,0 z M 200,0 l 4,0 0,4 -4,0 z M 204,0 l 4,0 0,4 -4,0 z M 208,0 l 4,0 0,4 -4,0 z M 0,4 l 4,0 0,4 -4,0 z M 24,4 l 4,0 0,4 -4,0 z M 32,4 l 4,0 0,4 -4,0 z M 52,4 l 4,0 0,4 -4,0 z M 68,4 l 4,0 0,4 -4,0 z M 80,4 l 4,0 0,4 -4,0 z M 84,4 l 4,0 0,4 -4,0 z M 88,4 l 4,0 0,4 -4,0 z M 100,4 l 4,0 0,4 -4,0 z M 120,4 l 4,0 0,4 -4,0 z M 124,4 l 4,0 0,4 -4,0 z M 132,4 l 4,0 0,4 -4,0 z M 136,4 l 4,0 0,4 -4,0 z M 152,4 l 4,0 0,4 -4,0 z M 156,4 l 4,0 0,4 -4,0 z M 164,4 l 4,0 0,4 -4,0 z M 168,4 l 4,0 0,4 -4,0 z M 172,4 l 4,0 0,4 -4,0 z M 184,4 l 4,0 0,4 -4,0 z M 208,4 l 4,0 0,4 -4,0 z M 0,8 l 4,0 0,4 -4,0 z M 8,8 l 4,0 0,4 -4,0 z M 12,8 l 4,0 0,4 -4,0 z M 16,8 l 4,0 0,4 -4,0 z M 24,8 l 4,0 0,4 -4,0 z M 40,8 l 4,0 0,4 -4,0 z M 44,8 l 4,0 0,4 -4,0 z M 52,8 l 4,0 0,4 -4,0 z M 60,8 l 4,0 0,4 -4,0 z M 68,8 l 4,0 0,4 -4,0 z M 72,8 l 4,0 0,4 -4,0 z M 76,8 l 4,0 0,4 -4,0 z M 80,8 l 4,0 0,4 -4,0 z M 88,8 l 4,0 0,4 -4,0 z M 124,8 l 4,0 0,4 -4,0 z M 132,8 l 4,0 0,4 -4,0 z M 148,8 l 4,0 0,4 -4,0 z M 152,8 l 4,0 0,4 -4,0 z M 156,8 l 4,0 0,4 -4,0 z M 160,8 l 4,0 0,4 -4,0 z M 164,8 l 4,0 0,4 -4,0 z M 172,8 l 4,0 0,4 -4,0 z M 184,8 l 4,0 0,4 -4,0 z M 192,8 l 4,0 0,4 -4,0 z M 196,8 l 4,0 0,4 -4,0 z M 200,8 l 4,0 0,4 -4,0 z M 208,8 l 4,0 0,4 -4,0 z M 0,12 l 4,0 0,4 -4,0 z M 8,12 l 4,0 0,4 -4,0 z M 12,12 l 4,0 0,4 -4,0 z M 16,12 l 4,0 0,4 -4,0 z M 24,12 l 4,0 0,4 -4,0 z M 32,12 l 4,0 0,4 -4,0 z M 36,12 l 4,0 0,4 -4,0 z M 44,12 l 4,0 0,4 -4,0 z M 48,12 l 4,0 0,4 -4,0 z M 56,12 l 4,0 0,4 -4,0 z M 60,12 l 4,0 0,4 -4,0 z M 72,12 l 4,0 0,4 -4,0 z M 96,12 l 4,0 0,4 -4,0 z M 112,12 l 4,0 0,4 -4,0 z M 116,12 l 4,0 0,4 -4,0 z M 144,12 l 4,0 0,4 -4,0 z M 148,12 l 4,0 0,4 -4,0 z M 168,12 l 4,0 0,4 -4,0 z M 176,12 l 4,0 0,4 -4,0 z M 184,12 l 4,0 0,4 -4,0 z M 192,12 l 4,0 0,4 -4,0 z M 196,12 l 4,0 0,4 -4,0 z M 200,12 l 4,0 0,4 -4,0 z M 208,12 l 4,0 0,4 -4,0 z M 0,16 l 4,0 0,4 -4,0 z M 8,16 l 4,0 0,4 -4,0 z M 12,16 l 4,0 0,4 -4,0 z M 16,16 l 4,0 0,4 -4,0 z M 24,16 l 4,0 0,4 -4,0 z M 36,16 l 4,0 0,4 -4,0 z M 40,16 l 4,0 0,4 -4,0 z M 56,16 l 4,0 0,4 -4,0 z M 76,16 l 4,0 0,4 -4,0 z M 80,16 l 4,0 0,4 -4,0 z M 84,16 l 4,0 0,4 -4,0 z M 92,16 l 4,0 0,4 -4,0 z M 96,16 l 4,0 0,4 -4,0 z M 100,16 l 4,0 0,4 -4,0 z M 104,16 l 4,0 0,4 -4,0 z M 108,16 l 4,0 0,4 -4,0 z M 112,16 l 4,0 0,4 -4,0 z M 116,16 l 4,0 0,4 -4,0 z M 120,16 l 4,0 0,4 -4,0 z M 124,16 l 4,0 0,4 -4,0 z M 128,16 l 4,0 0,4 -4,0 z M 132,16 l 4,0 0,4 -4,0 z M 140,16 l 4,0 0,4 -4,0 z M 144,16 l 4,0 0,4 -4,0 z M 148,16 l 4,0 0,4 -4,0 z M 152,16 l 4,0 0,4 -4,0 z M 156,16 l 4,0 0,4 -4,0 z M 164,16 l 4,0 0,4 -4,0 z M 168,16 l 4,0 0,4 -4,0 z M 184,16 l 4,0 0,4 -4,0 z M 192,16 l 4,0 0,4 -4,0 z M 196,16 l 4,0 0,4 -4,0 z M 200,16 l 4,0 0,4 -4,0 z M 208,16 l 4,0 0,4 -4,0 z M 0,20 l 4,0 0,4 -4,0 z M 24,20 l 4,0 0,4 -4,0 z M 32,20 l 4,0 0,4 -4,0 z M 36,20 l 4,0 0,4 -4,0 z M 52,20 l 4,0 0,4 -4,0 z M 56,20 l 4,0 0,4 -4,0 z M 64,20 l 4,0 0,4 -4,0 z M 72,20 l 4,0 0,4 -4,0 z M 76,20 l 4,0 0,4 -4,0 z M 88,20 l 4,0 0,4 -4,0 z M 96,20 l 4,0 0,4 -4,0 z M 112,20 l 4,0 0,4 -4,0 z M 120,20 l 4,0 0,4 -4,0 z M 128,20 l 4,0 0,4 -4,0 z M 136,20 l 4,0 0,4 -4,0 z M 140,20 l 4,0 0,4 -4,0 z M 152,20 l 4,0 0,4 -4,0 z M 160,20 l 4,0 0,4 -4,0 z M 168,20 l 4,0 0,4 -4,0 z M 184,20 l 4,0 0,4 -4,0 z M 208,20 l 4,0 0,4 -4,0 z M 0,24 l 4,0 0,4 -4,0 z M 4,24 l 4,0 0,4 -4,0 z M 8,24 l 4,0 0,4 -4,0 z M 12,24 l 4,0 0,4 -4,0 z M 16,24 l 4,0 0,4 -4,0 z M 20,24 l 4,0 0,4 -4,0 z M 24,24 l 4,0 0,4 -4,0 z M 32,24 l 4,0 0,4 -4,0 z M 40,24 l 4,0 0,4 -4,0 z M 48,24 l 4,0 0,4 -4,0 z M 56,24 l 4,0 0,4 -4,0 z M 64,24 l 4,0 0,4 -4,0 z M 72,24 l 4,0 0,4 -4,0 z M 80,24 l 4,0 0,4 -4,0 z M 88,24 l 4,0 0,4 -4,0 z M 96,24 l 4,0 0,4 -4,0 z M 104,24 l 4,0 0,4 -4,0 z M 112,24 l 4,0 0,4 -4,0 z M 120,24 l 4,0 0,4 -4,0 z M 128,24 l 4,0 0,4 -4,0 z M 136,24 l 4,0 0,4 -4,0 z M 144,24 l 4,0 0,4 -4,0 z M 152,24 l 4,0 0,4 -4,0 z M 160,24 l 4,0 0,4 -4,0 z M 168,24 l 4,0 0,4 -4,0 z M 176,24 l 4,0 0,4 -4,0 z M 184,24 l 4,0 0,4 -4,0 z M 188,24 l 4,0 0,4 -4,0 z M 192,24 l 4,0 0,4 -4,0 z M 196,24 l 4,0 0,4 -4,0 z M 200,24 l 4,0 0,4 -4,0 z M 204,24 l 4,0 0,4 -4,0 z M 208,24 l 4,0 0,4 -4,0 z M 36,28 l 4,0 0,4 -4,0 z M 44,28 l 4,0 0,4 -4,0 z M 48,28 l 4,0 0,4 -4,0 z M 56,28 l 4,0 0,4 -4,0 z M 64,28 l 4,0 0,4 -4,0 z M 68,28 l 4,0 0,4 -4,0 z M 72,28 l 4,0 0,4 -4,0 z M 76,28 l 4,0 0,4 -4,0 z M 80,28 l 4,0 0,4 -4,0 z M 84,28 l 4,0 0,4 -4,0 z M 88,28 l 4,0 0,4 -4,0 z M 96,28 l 4,0 0,4 -4,0 z M 112,28 l 4,0 0,4 -4,0 z M 124,28 l 4,0 0,4 -4,0 z M 136,28 l 4,0 0,4 -4,0 z M 148,28 l 4,0 0,4 -4,0 z M 152,28 l 4,0 0,4 -4,0 z M 156,28 l 4,0 0,4 -4,0 z M 160,28 l 4,0 0,4 -4,0 z M 164,28 l 4,0 0,4 -4,0 z M 172,28 l 4,0 0,4 -4,0 z M 0,32 l 4,0 0,4 -4,0 z M 4,32 l 4,0 0,4 -4,0 z M 8,32 l 4,0 0,4 -4,0 z M 12,32 l 4,0 0,4 -4,0 z M 16,32 l 4,0 0,4 -4,0 z M 24,32 l 4,0 0,4 -4,0 z M 28,32 l 4,0 0,4 -4,0 z M 32,32 l 4,0 0,4 -4,0 z M 52,32 l 4,0 0,4 -4,0 z M 56,32 l 4,0 0,4 -4,0 z M 60,32 l 4,0 0,4 -4,0 z M 72,32 l 4,0 0,4 -4,0 z M 76,32 l 4,0 0,4 -4,0 z M 88,32 l 4,0 0,4 -4,0 z M 96,32 l 4,0 0,4 -4,0 z M 100,32 l 4,0 0,4 -4,0 z M 104,32 l 4,0 0,4 -4,0 z M 108,32 l 4,0 0,4 -4,0 z M 112,32 l 4,0 0,4 -4,0 z M 120,32 l 4,0 0,4 -4,0 z M 124,32 l 4,0 0,4 -4,0 z M 128,32 l 4,0 0,4 -4,0 z M 132,32 l 4,0 0,4 -4,0 z M 136,32 l 4,0 0,4 -4,0 z M 140,32 l 4,0 0,4 -4,0 z M 144,32 l 4,0 0,4 -4,0 z M 180,32 l 4,0 0,4 -4,0 z M 188,32 l 4,0 0,4 -4,0 z M 196,32 l 4,0 0,4 -4,0 z M 204,32 l 4,0 0,4 -4,0 z M 0,36 l 4,0 0,4 -4,0 z M 4,36 l 4,0 0,4 -4,0 z M 12,36 l 4,0 0,4 -4,0 z M 20,36 l 4,0 0,4 -4,0 z M 32,36 l 4,0 0,4 -4,0 z M 48,36 l 4,0 0,4 -4,0 z M 64,36 l 4,0 0,4 -4,0 z M 68,36 l 4,0 0,4 -4,0 z M 72,36 l 4,0 0,4 -4,0 z M 84,36 l 4,0 0,4 -4,0 z M 96,36 l 4,0 0,4 -4,0 z M 120,36 l 4,0 0,4 -4,0 z M 140,36 l 4,0 0,4 -4,0 z M 144,36 l 4,0 0,4 -4,0 z M 168,36 l 4,0 0,4 -4,0 z M 172,36 l 4,0 0,4 -4,0 z M 184,36 l 4,0 0,4 -4,0 z M 196,36 l 4,0 0,4 -4,0 z M 200,36 l 4,0 0,4 -4,0 z M 204,36 l 4,0 0,4 -4,0 z M 208,36 l 4,0 0,4 -4,0 z M 12,40 l 4,0 0,4 -4,0 z M 24,40 l 4,0 0,4 -4,0 z M 28,40 l 4,0 0,4 -4,0 z M 32,40 l 4,0 0,4 -4,0 z M 44,40 l 4,0 0,4 -4,0 z M 48,40 l 4,0 0,4 -4,0 z M 52,40 l 4,0 0,4 -4,0 z M 56,40 l 4,0 0,4 -4,0 z M 60,40 l 4,0 0,4 -4,0 z M 64,40 l 4,0 0,4 -4,0 z M 68,40 l 4,0 0,4 -4,0 z M 76,40 l 4,0 0,4 -4,0 z M 84,40 l 4,0 0,4 -4,0 z M 96,40 l 4,0 0,4 -4,0 z M 100,40 l 4,0 0,4 -4,0 z M 116,40 l 4,0 0,4 -4,0 z M 120,40 l 4,0 0,4 -4,0 z M 128,40 l 4,0 0,4 -4,0 z M 132,40 l 4,0 0,4 -4,0 z M 136,40 l 4,0 0,4 -4,0 z M 140,40 l 4,0 0,4 -4,0 z M 156,40 l 4,0 0,4 -4,0 z M 160,40 l 4,0 0,4 -4,0 z M 164,40 l 4,0 0,4 -4,0 z M 176,40 l 4,0 0,4 -4,0 z M 188,40 l 4,0 0,4 -4,0 z M 192,40 l 4,0 0,4 -4,0 z M 208,40 l 4,0 0,4 -4,0 z M 8,44 l 4,0 0,4 -4,0 z M 12,44 l 4,0 0,4 -4,0 z M 20,44 l 4,0 0,4 -4,0 z M 28,44 l 4,0 0,4 -4,0 z M 32,44 l 4,0 0,4 -4,0 z M 36,44 l 4,0 0,4 -4,0 z M 40,44 l 4,0 0,4 -4,0 z M 64,44 l 4,0 0,4 -4,0 z M 68,44 l 4,0 0,4 -4,0 z M 72,44 l 4,0 0,4 -4,0 z M 96,44 l 4,0 0,4 -4,0 z M 100,44 l 4,0 0,4 -4,0 z M 108,44 l 4,0 0,4 -4,0 z M 120,44 l 4,0 0,4 -4,0 z M 124,44 l 4,0 0,4 -4,0 z M 136,44 l 4,0 0,4 -4,0 z M 144,44 l 4,0 0,4 -4,0 z M 148,44 l 4,0 0,4 -4,0 z M 152,44 l 4,0 0,4 -4,0 z M 156,44 l 4,0 0,4 -4,0 z M 164,44 l 4,0 0,4 -4,0 z M 172,44 l 4,0 0,4 -4,0 z M 184,44 l 4,0 0,4 -4,0 z M 192,44 l 4,0 0,4 -4,0 z M 196,44 l 4,0 0,4 -4,0 z M 200,44 l 4,0 0,4 -4,0 z M 4,48 l 4,0 0,4 -4,0 z M 8,48 l 4,0 0,4 -4,0 z M 20,48 l 4,0 0,4 -4,0 z M 24,48 l 4,0 0,4 -4,0 z M 32,48 l 4,0 0,4 -4,0 z M 40,48 l 4,0 0,4 -4,0 z M 44,48 l 4,0 0,4 -4,0 z M 48,48 l 4,0 0,4 -4,0 z M 52,48 l 4,0 0,4 -4,0 z M 60,48 l 4,0 0,4 -4,0 z M 68,48 l 4,0 0,4 -4,0 z M 72,48 l 4,0 0,4 -4,0 z M 80,48 l 4,0 0,4 -4,0 z M 84,48 l 4,0 0,4 -4,0 z M 88,48 l 4,0 0,4 -4,0 z M 92,48 l 4,0 0,4 -4,0 z M 96,48 l 4,0 0,4 -4,0 z M 108,48 l 4,0 0,4 -4,0 z M 116,48 l 4,0 0,4 -4,0 z M 128,48 l 4,0 0,4 -4,0 z M 148,48 l 4,0 0,4 -4,0 z M 160,48 l 4,0 0,4 -4,0 z M 168,48 l 4,0 0,4 -4,0 z M 180,48 l 4,0 0,4 -4,0 z M 184,48 l 4,0 0,4 -4,0 z M 188,48 l 4,0 0,4 -4,0 z M 192,48 l 4,0 0,4 -4,0 z M 200,48 l 4,0 0,4 -4,0 z M 208,48 l 4,0 0,4 -4,0 z M 0,52 l 4,0 0,4 -4,0 z M 8,52 l 4,0 0,4 -4,0 z M 12,52 l 4,0 0,4 -4,0 z M 16,52 l 4,0 0,4 -4,0 z M 20,52 l 4,0 0,4 -4,0 z M 36,52 l 4,0 0,4 -4,0 z M 40,52 l 4,0 0,4 -4,0 z M 48,52 l 4,0 0,4 -4,0 z M 56,52 l 4,0 0,4 -4,0 z M 60,52 l 4,0 0,4 -4,0 z M 64,52 l 4,0 0,4 -4,0 z M 84,52 l 4,0 0,4 -4,0 z M 88,52 l 4,0 0,4 -4,0 z M 96,52 l 4,0 0,4 -4,0 z M 108,52 l 4,0 0,4 -4,0 z M 116,52 l 4,0 0,4 -4,0 z M 120,52 l 4,0 0,4 -4,0 z M 124,52 l 4,0 0,4 -4,0 z M 128,52 l 4,0 0,4 -4,0 z M 152,52 l 4,0 0,4 -4,0 z M 164,52 l 4,0 0,4 -4,0 z M 168,52 l 4,0 0,4 -4,0 z M 172,52 l 4,0 0,4 -4,0 z M 184,52 l 4,0 0,4 -4,0 z M 188,52 l 4,0 0,4 -4,0 z M 200,52 l 4,0 0,4 -4,0 z M 204,52 l 4,0 0,4 -4,0 z M 4,56 l 4,0 0,4 -4,0 z M 8,56 l 4,0 0,4 -4,0 z M 12,56 l 4,0 0,4 -4,0 z M 24,56 l 4,0 0,4 -4,0 z M 60,56 l 4,0 0,4 -4,0 z M 64,56 l 4,0 0,4 -4,0 z M 68,56 l 4,0 0,4 -4,0 z M 76,56 l 4,0 0,4 -4,0 z M 84,56 l 4,0 0,4 -4,0 z M 104,56 l 4,0 0,4 -4,0 z M 140,56 l 4,0 0,4 -4,0 z M 144,56 l 4,0 0,4 -4,0 z M 152,56 l 4,0 0,4 -4,0 z M 172,56 l 4,0 0,4 -4,0 z M 176,56 l 4,0 0,4 -4,0 z M 180,56 l 4,0 0,4 -4,0 z M 184,56 l 4,0 0,4 -4,0 z M 188,56 l 4,0 0,4 -4,0 z M 192,56 l 4,0 0,4 -4,0 z M 196,56 l 4,0 0,4 -4,0 z M 200,56 l 4,0 0,4 -4,0 z M 208,56 l 4,0 0,4 -4,0 z M 0,60 l 4,0 0,4 -4,0 z M 4,60 l 4,0 0,4 -4,0 z M 8,60 l 4,0 0,4 -4,0 z M 32,60 l 4,0 0,4 -4,0 z M 44,60 l 4,0 0,4 -4,0 z M 52,60 l 4,0 0,4 -4,0 z M 64,60 l 4,0 0,4 -4,0 z M 76,60 l 4,0 0,4 -4,0 z M 80,60 l 4,0 0,4 -4,0 z M 96,60 l 4,0 0,4 -4,0 z M 100,60 l 4,0 0,4 -4,0 z M 116,60 l 4,0 0,4 -4,0 z M 120,60 l 4,0 0,4 -4,0 z M 124,60 l 4,0 0,4 -4,0 z M 128,60 l 4,0 0,4 -4,0 z M 132,60 l 4,0 0,4 -4,0 z M 136,60 l 4,0 0,4 -4,0 z M 152,60 l 4,0 0,4 -4,0 z M 156,60 l 4,0 0,4 -4,0 z M 160,60 l 4,0 0,4 -4,0 z M 172,60 l 4,0 0,4 -4,0 z M 176,60 l 4,0 0,4 -4,0 z M 180,60 l 4,0 0,4 -4,0 z M 184,60 l 4,0 0,4 -4,0 z M 196,60 l 4,0 0,4 -4,0 z M 200,60 l 4,0 0,4 -4,0 z M 20,64 l 4,0 0,4 -4,0 z M 24,64 l 4,0 0,4 -4,0 z M 28,64 l 4,0 0,4 -4,0 z M 36,64 l 4,0 0,4 -4,0 z M 40,64 l 4,0 0,4 -4,0 z M 44,64 l 4,0 0,4 -4,0 z M 68,64 l 4,0 0,4 -4,0 z M 84,64 l 4,0 0,4 -4,0 z M 92,64 l 4,0 0,4 -4,0 z M 100,64 l 4,0 0,4 -4,0 z M 124,64 l 4,0 0,4 -4,0 z M 140,64 l 4,0 0,4 -4,0 z M 144,64 l 4,0 0,4 -4,0 z M 152,64 l 4,0 0,4 -4,0 z M 184,64 l 4,0 0,4 -4,0 z M 188,64 l 4,0 0,4 -4,0 z M 192,64 l 4,0 0,4 -4,0 z M 196,64 l 4,0 0,4 -4,0 z M 200,64 l 4,0 0,4 -4,0 z M 208,64 l 4,0 0,4 -4,0 z M 20,68 l 4,0 0,4 -4,0 z M 32,68 l 4,0 0,4 -4,0 z M 36,68 l 4,0 0,4 -4,0 z M 40,68 l 4,0 0,4 -4,0 z M 44,68 l 4,0 0,4 -4,0 z M 48,68 l 4,0 0,4 -4,0 z M 52,68 l 4,0 0,4 -4,0 z M 60,68 l 4,0 0,4 -4,0 z M 72,68 l 4,0 0,4 -4,0 z M 76,68 l 4,0 0,4 -4,0 z M 80,68 l 4,0 0,4 -4,0 z M 104,68 l 4,0 0,4 -4,0 z M 108,68 l 4,0 0,4 -4,0 z M 120,68 l 4,0 0,4 -4,0 z M 128,68 l 4,0 0,4 -4,0 z M 140,68 l 4,0 0,4 -4,0 z M 148,68 l 4,0 0,4 -4,0 z M 156,68 l 4,0 0,4 -4,0 z M 160,68 l 4,0 0,4 -4,0 z M 164,68 l 4,0 0,4 -4,0 z M 168,68 l 4,0 0,4 -4,0 z M 172,68 l 4,0 0,4 -4,0 z M 192,68 l 4,0 0,4 -4,0 z M 196,68 l 4,0 0,4 -4,0 z M 204,68 l 4,0 0,4 -4,0 z M 0,72 l 4,0 0,4 -4,0 z M 4,72 l 4,0 0,4 -4,0 z M 12,72 l 4,0 0,4 -4,0 z M 24,72 l 4,0 0,4 -4,0 z M 32,72 l 4,0 0,4 -4,0 z M 36,72 l 4,0 0,4 -4,0 z M 44,72 l 4,0 0,4 -4,0 z M 48,72 l 4,0 0,4 -4,0 z M 52,72 l 4,0 0,4 -4,0 z M 56,72 l 4,0 0,4 -4,0 z M 68,72 l 4,0 0,4 -4,0 z M 72,72 l 4,0 0,4 -4,0 z M 80,72 l 4,0 0,4 -4,0 z M 96,72 l 4,0 0,4 -4,0 z M 100,72 l 4,0 0,4 -4,0 z M 120,72 l 4,0 0,4 -4,0 z M 128,72 l 4,0 0,4 -4,0 z M 132,72 l 4,0 0,4 -4,0 z M 136,72 l 4,0 0,4 -4,0 z M 140,72 l 4,0 0,4 -4,0 z M 156,72 l 4,0 0,4 -4,0 z M 168,72 l 4,0 0,4 -4,0 z M 176,72 l 4,0 0,4 -4,0 z M 180,72 l 4,0 0,4 -4,0 z M 192,72 l 4,0 0,4 -4,0 z M 196,72 l 4,0 0,4 -4,0 z M 204,72 l 4,0 0,4 -4,0 z M 0,76 l 4,0 0,4 -4,0 z M 4,76 l 4,0 0,4 -4,0 z M 8,76 l 4,0 0,4 -4,0 z M 12,76 l 4,0 0,4 -4,0 z M 16,76 l 4,0 0,4 -4,0 z M 36,76 l 4,0 0,4 -4,0 z M 44,76 l 4,0 0,4 -4,0 z M 48,76 l 4,0 0,4 -4,0 z M 52,76 l 4,0 0,4 -4,0 z M 60,76 l 4,0 0,4 -4,0 z M 68,76 l 4,0 0,4 -4,0 z M 72,76 l 4,0 0,4 -4,0 z M 76,76 l 4,0 0,4 -4,0 z M 80,76 l 4,0 0,4 -4,0 z M 84,76 l 4,0 0,4 -4,0 z M 96,76 l 4,0 0,4 -4,0 z M 100,76 l 4,0 0,4 -4,0 z M 108,76 l 4,0 0,4 -4,0 z M 112,76 l 4,0 0,4 -4,0 z M 120,76 l 4,0 0,4 -4,0 z M 128,76 l 4,0 0,4 -4,0 z M 132,76 l 4,0 0,4 -4,0 z M 136,76 l 4,0 0,4 -4,0 z M 140,76 l 4,0 0,4 -4,0 z M 144,76 l 4,0 0,4 -4,0 z M 156,76 l 4,0 0,4 -4,0 z M 160,76 l 4,0 0,4 -4,0 z M 164,76 l 4,0 0,4 -4,0 z M 176,76 l 4,0 0,4 -4,0 z M 184,76 l 4,0 0,4 -4,0 z M 192,76 l 4,0 0,4 -4,0 z M 196,76 l 4,0 0,4 -4,0 z M 200,76 l 4,0 0,4 -4,0 z M 0,80 l 4,0 0,4 -4,0 z M 8,80 l 4,0 0,4 -4,0 z M 16,80 l 4,0 0,4 -4,0 z M 20,80 l 4,0 0,4 -4,0 z M 24,80 l 4,0 0,4 -4,0 z M 44,80 l 4,0 0,4 -4,0 z M 52,80 l 4,0 0,4 -4,0 z M 56,80 l 4,0 0,4 -4,0 z M 60,80 l 4,0 0,4 -4,0 z M 64,80 l 4,0 0,4 -4,0 z M 68,80 l 4,0 0,4 -4,0 z M 80,80 l 4,0 0,4 -4,0 z M 88,80 l 4,0 0,4 -4,0 z M 96,80 l 4,0 0,4 -4,0 z M 108,80 l 4,0 0,4 -4,0 z M 116,80 l 4,0 0,4 -4,0 z M 128,80 l 4,0 0,4 -4,0 z M 136,80 l 4,0 0,4 -4,0 z M 148,80 l 4,0 0,4 -4,0 z M 160,80 l 4,0 0,4 -4,0 z M 164,80 l 4,0 0,4 -4,0 z M 168,80 l 4,0 0,4 -4,0 z M 180,80 l 4,0 0,4 -4,0 z M 184,80 l 4,0 0,4 -4,0 z M 0,84 l 4,0 0,4 -4,0 z M 16,84 l 4,0 0,4 -4,0 z M 28,84 l 4,0 0,4 -4,0 z M 36,84 l 4,0 0,4 -4,0 z M 48,84 l 4,0 0,4 -4,0 z M 56,84 l 4,0 0,4 -4,0 z M 60,84 l 4,0 0,4 -4,0 z M 72,84 l 4,0 0,4 -4,0 z M 80,84 l 4,0 0,4 -4,0 z M 88,84 l 4,0 0,4 -4,0 z M 92,84 l 4,0 0,4 -4,0 z M 96,84 l 4,0 0,4 -4,0 z M 100,84 l 4,0 0,4 -4,0 z M 108,84 l 4,0 0,4 -4,0 z M 120,84 l 4,0 0,4 -4,0 z M 124,84 l 4,0 0,4 -4,0 z M 128,84 l 4,0 0,4 -4,0 z M 132,84 l 4,0 0,4 -4,0 z M 136,84 l 4,0 0,4 -4,0 z M 144,84 l 4,0 0,4 -4,0 z M 148,84 l 4,0 0,4 -4,0 z M 156,84 l 4,0 0,4 -4,0 z M 164,84 l 4,0 0,4 -4,0 z M 176,84 l 4,0 0,4 -4,0 z M 184,84 l 4,0 0,4 -4,0 z M 188,84 l 4,0 0,4 -4,0 z M 192,84 l 4,0 0,4 -4,0 z M 200,84 l 4,0 0,4 -4,0 z M 204,84 l 4,0 0,4 -4,0 z M 208,84 l 4,0 0,4 -4,0 z M 0,88 l 4,0 0,4 -4,0 z M 4,88 l 4,0 0,4 -4,0 z M 8,88 l 4,0 0,4 -4,0 z M 16,88 l 4,0 0,4 -4,0 z M 24,88 l 4,0 0,4 -4,0 z M 32,88 l 4,0 0,4 -4,0 z M 36,88 l 4,0 0,4 -4,0 z M 40,88 l 4,0 0,4 -4,0 z M 44,88 l 4,0 0,4 -4,0 z M 52,88 l 4,0 0,4 -4,0 z M 56,88 l 4,0 0,4 -4,0 z M 72,88 l 4,0 0,4 -4,0 z M 76,88 l 4,0 0,4 -4,0 z M 88,88 l 4,0 0,4 -4,0 z M 92,88 l 4,0 0,4 -4,0 z M 120,88 l 4,0 0,4 -4,0 z M 128,88 l 4,0 0,4 -4,0 z M 132,88 l 4,0 0,4 -4,0 z M 136,88 l 4,0 0,4 -4,0 z M 140,88 l 4,0 0,4 -4,0 z M 160,88 l 4,0 0,4 -4,0 z M 176,88 l 4,0 0,4 -4,0 z M 180,88 l 4,0 0,4 -4,0 z M 184,88 l 4,0 0,4 -4,0 z M 196,88 l 4,0 0,4 -4,0 z M 204,88 l 4,0 0,4 -4,0 z M 4,92 l 4,0 0,4 -4,0 z M 8,92 l 4,0 0,4 -4,0 z M 16,92 l 4,0 0,4 -4,0 z M 20,92 l 4,0 0,4 -4,0 z M 32,92 l 4,0 0,4 -4,0 z M 36,92 l 4,0 0,4 -4,0 z M 56,92 l 4,0 0,4 -4,0 z M 64,92 l 4,0 0,4 -4,0 z M 68,92 l 4,0 0,4 -4,0 z M 72,92 l 4,0 0,4 -4,0 z M 76,92 l 4,0 0,4 -4,0 z M 80,92 l 4,0 0,4 -4,0 z M 84,92 l 4,0 0,4 -4,0 z M 88,92 l 4,0 0,4 -4,0 z M 96,92 l 4,0 0,4 -4,0 z M 100,92 l 4,0 0,4 -4,0 z M 108,92 l 4,0 0,4 -4,0 z M 112,92 l 4,0 0,4 -4,0 z M 128,92 l 4,0 0,4 -4,0 z M 132,92 l 4,0 0,4 -4,0 z M 136,92 l 4,0 0,4 -4,0 z M 148,92 l 4,0 0,4 -4,0 z M 152,92 l 4,0 0,4 -4,0 z M 156,92 l 4,0 0,4 -4,0 z M 164,92 l 4,0 0,4 -4,0 z M 168,92 l 4,0 0,4 -4,0 z M 172,92 l 4,0 0,4 -4,0 z M 176,92 l 4,0 0,4 -4,0 z M 180,92 l 4,0 0,4 -4,0 z M 196,92 l 4,0 0,4 -4,0 z M 200,92 l 4,0 0,4 -4,0 z M 0,96 l 4,0 0,4 -4,0 z M 8,96 l 4,0 0,4 -4,0 z M 16,96 l 4,0 0,4 -4,0 z M 20,96 l 4,0 0,4 -4,0 z M 24,96 l 4,0 0,4 -4,0 z M 28,96 l 4,0 0,4 -4,0 z M 32,96 l 4,0 0,4 -4,0 z M 40,96 l 4,0 0,4 -4,0 z M 44,96 l 4,0 0,4 -4,0 z M 48,96 l 4,0 0,4 -4,0 z M 52,96 l 4,0 0,4 -4,0 z M 56,96 l 4,0 0,4 -4,0 z M 60,96 l 4,0 0,4 -4,0 z M 72,96 l 4,0 0,4 -4,0 z M 76,96 l 4,0 0,4 -4,0 z M 88,96 l 4,0 0,4 -4,0 z M 92,96 l 4,0 0,4 -4,0 z M 96,96 l 4,0 0,4 -4,0 z M 100,96 l 4,0 0,4 -4,0 z M 104,96 l 4,0 0,4 -4,0 z M 108,96 l 4,0 0,4 -4,0 z M 112,96 l 4,0 0,4 -4,0 z M 120,96 l 4,0 0,4 -4,0 z M 136,96 l 4,0 0,4 -4,0 z M 140,96 l 4,0 0,4 -4,0 z M 144,96 l 4,0 0,4 -4,0 z M 152,96 l 4,0 0,4 -4,0 z M 168,96 l 4,0 0,4 -4,0 z M 176,96 l 4,0 0,4 -4,0 z M 180,96 l 4,0 0,4 -4,0 z M 184,96 l 4,0 0,4 -4,0 z M 188,96 l 4,0 0,4 -4,0 z M 192,96 l 4,0 0,4 -4,0 z M 196,96 l 4,0 0,4 -4,0 z M 208,96 l 4,0 0,4 -4,0 z M 4,100 l 4,0 0,4 -4,0 z M 16,100 l 4,0 0,4 -4,0 z M 32,100 l 4,0 0,4 -4,0 z M 36,100 l 4,0 0,4 -4,0 z M 44,100 l 4,0 0,4 -4,0 z M 48,100 l 4,0 0,4 -4,0 z M 64,100 l 4,0 0,4 -4,0 z M 68,100 l 4,0 0,4 -4,0 z M 72,100 l 4,0 0,4 -4,0 z M 84,100 l 4,0 0,4 -4,0 z M 92,100 l 4,0 0,4 -4,0 z M 96,100 l 4,0 0,4 -4,0 z M 112,100 l 4,0 0,4 -4,0 z M 128,100 l 4,0 0,4 -4,0 z M 132,100 l 4,0 0,4 -4,0 z M 144,100 l 4,0 0,4 -4,0 z M 156,100 l 4,0 0,4 -4,0 z M 164,100 l 4,0 0,4 -4,0 z M 168,100 l 4,0 0,4 -4,0 z M 176,100 l 4,0 0,4 -4,0 z M 192,100 l 4,0 0,4 -4,0 z M 196,100 l 4,0 0,4 -4,0 z M 200,100 l 4,0 0,4 -4,0 z M 204,100 l 4,0 0,4 -4,0 z M 8,104 l 4,0 0,4 -4,0 z M 16,104 l 4,0 0,4 -4,0 z M 24,104 l 4,0 0,4 -4,0 z M 32,104 l 4,0 0,4 -4,0 z M 40,104 l 4,0 0,4 -4,0 z M 44,104 l 4,0 0,4 -4,0 z M 52,104 l 4,0 0,4 -4,0 z M 56,104 l 4,0 0,4 -4,0 z M 60,104 l 4,0 0,4 -4,0 z M 64,104 l 4,0 0,4 -4,0 z M 68,104 l 4,0 0,4 -4,0 z M 76,104 l 4,0 0,4 -4,0 z M 84,104 l 4,0 0,4 -4,0 z M 96,104 l 4,0 0,4 -4,0 z M 104,104 l 4,0 0,4 -4,0 z M 112,104 l 4,0 0,4 -4,0 z M 128,104 l 4,0 0,4 -4,0 z M 132,104 l 4,0 0,4 -4,0 z M 140,104 l 4,0 0,4 -4,0 z M 144,104 l 4,0 0,4 -4,0 z M 148,104 l 4,0 0,4 -4,0 z M 152,104 l 4,0 0,4 -4,0 z M 156,104 l 4,0 0,4 -4,0 z M 176,104 l 4,0 0,4 -4,0 z M 184,104 l 4,0 0,4 -4,0 z M 192,104 l 4,0 0,4 -4,0 z M 208,104 l 4,0 0,4 -4,0 z M 0,108 l 4,0 0,4 -4,0 z M 8,108 l 4,0 0,4 -4,0 z M 12,108 l 4,0 0,4 -4,0 z M 16,108 l 4,0 0,4 -4,0 z M 32,108 l 4,0 0,4 -4,0 z M 36,108 l 4,0 0,4 -4,0 z M 40,108 l 4,0 0,4 -4,0 z M 48,108 l 4,0 0,4 -4,0 z M 52,108 l 4,0 0,4 -4,0 z M 64,108 l 4,0 0,4 -4,0 z M 72,108 l 4,0 0,4 -4,0 z M 88,108 l 4,0 0,4 -4,0 z M 92,108 l 4,0 0,4 -4,0 z M 96,108 l 4,0 0,4 -4,0 z M 112,108 l 4,0 0,4 -4,0 z M 128,108 l 4,0 0,4 -4,0 z M 140,108 l 4,0 0,4 -4,0 z M 148,108 l 4,0 0,4 -4,0 z M 156,108 l 4,0 0,4 -4,0 z M 164,108 l 4,0 0,4 -4,0 z M 176,108 l 4,0 0,4 -4,0 z M 192,108 l 4,0 0,4 -4,0 z M 196,108 l 4,0 0,4 -4,0 z M 0,112 l 4,0 0,4 -4,0 z M 4,112 l 4,0 0,4 -4,0 z M 8,112 l 4,0 0,4 -4,0 z M 12,112 l 4,0 0,4 -4,0 z M 16,112 l 4,0 0,4 -4,0 z M 20,112 l 4,0 0,4 -4,0 z M 24,112 l 4,0 0,4 -4,0 z M 28,112 l 4,0 0,4 -4,0 z M 32,112 l 4,0 0,4 -4,0 z M 36,112 l 4,0 0,4 -4,0 z M 44,112 l 4,0 0,4 -4,0 z M 52,112 l 4,0 0,4 -4,0 z M 56,112 l 4,0 0,4 -4,0 z M 60,112 l 4,0 0,4 -4,0 z M 68,112 l 4,0 0,4 -4,0 z M 72,112 l 4,0 0,4 -4,0 z M 80,112 l 4,0 0,4 -4,0 z M 92,112 l 4,0 0,4 -4,0 z M 96,112 l 4,0 0,4 -4,0 z M 100,112 l 4,0 0,4 -4,0 z M 104,112 l 4,0 0,4 -4,0 z M 108,112 l 4,0 0,4 -4,0 z M 112,112 l 4,0 0,4 -4,0 z M 116,112 l 4,0 0,4 -4,0 z M 128,112 l 4,0 0,4 -4,0 z M 140,112 l 4,0 0,4 -4,0 z M 144,112 l 4,0 0,4 -4,0 z M 160,112 l 4,0 0,4 -4,0 z M 164,112 l 4,0 0,4 -4,0 z M 168,112 l 4,0 0,4 -4,0 z M 176,112 l 4,0 0,4 -4,0 z M 180,112 l 4,0 0,4 -4,0 z M 184,112 l 4,0 0,4 -4,0 z M 188,112 l 4,0 0,4 -4,0 z M 192,112 l 4,0 0,4 -4,0 z M 200,112 l 4,0 0,4 -4,0 z M 0,116 l 4,0 0,4 -4,0 z M 8,116 l 4,0 0,4 -4,0 z M 16,116 l 4,0 0,4 -4,0 z M 28,116 l 4,0 0,4 -4,0 z M 32,116 l 4,0 0,4 -4,0 z M 36,116 l 4,0 0,4 -4,0 z M 40,116 l 4,0 0,4 -4,0 z M 44,116 l 4,0 0,4 -4,0 z M 48,116 l 4,0 0,4 -4,0 z M 60,116 l 4,0 0,4 -4,0 z M 72,116 l 4,0 0,4 -4,0 z M 76,116 l 4,0 0,4 -4,0 z M 80,116 l 4,0 0,4 -4,0 z M 104,116 l 4,0 0,4 -4,0 z M 108,116 l 4,0 0,4 -4,0 z M 112,116 l 4,0 0,4 -4,0 z M 116,116 l 4,0 0,4 -4,0 z M 120,116 l 4,0 0,4 -4,0 z M 124,116 l 4,0 0,4 -4,0 z M 128,116 l 4,0 0,4 -4,0 z M 144,116 l 4,0 0,4 -4,0 z M 164,116 l 4,0 0,4 -4,0 z M 176,116 l 4,0 0,4 -4,0 z M 180,116 l 4,0 0,4 -4,0 z M 184,116 l 4,0 0,4 -4,0 z M 188,116 l 4,0 0,4 -4,0 z M 192,116 l 4,0 0,4 -4,0 z M 196,116 l 4,0 0,4 -4,0 z M 200,116 l 4,0 0,4 -4,0 z M 204,116 l 4,0 0,4 -4,0 z M 4,120 l 4,0 0,4 -4,0 z M 8,120 l 4,0 0,4 -4,0 z M 16,120 l 4,0 0,4 -4,0 z M 20,120 l 4,0 0,4 -4,0 z M 24,120 l 4,0 0,4 -4,0 z M 28,120 l 4,0 0,4 -4,0 z M 32,120 l 4,0 0,4 -4,0 z M 36,120 l 4,0 0,4 -4,0 z M 44,120 l 4,0 0,4 -4,0 z M 48,120 l 4,0 0,4 -4,0 z M 60,120 l 4,0 0,4 -4,0 z M 64,120 l 4,0 0,4 -4,0 z M 68,120 l 4,0 0,4 -4,0 z M 76,120 l 4,0 0,4 -4,0 z M 84,120 l 4,0 0,4 -4,0 z M 92,120 l 4,0 0,4 -4,0 z M 96,120 l 4,0 0,4 -4,0 z M 100,120 l 4,0 0,4 -4,0 z M 104,120 l 4,0 0,4 -4,0 z M 116,120 l 4,0 0,4 -4,0 z M 128,120 l 4,0 0,4 -4,0 z M 136,120 l 4,0 0,4 -4,0 z M 140,120 l 4,0 0,4 -4,0 z M 144,120 l 4,0 0,4 -4,0 z M 148,120 l 4,0 0,4 -4,0 z M 160,120 l 4,0 0,4 -4,0 z M 168,120 l 4,0 0,4 -4,0 z M 180,120 l 4,0 0,4 -4,0 z M 184,120 l 4,0 0,4 -4,0 z M 188,120 l 4,0 0,4 -4,0 z M 196,120 l 4,0 0,4 -4,0 z M 204,120 l 4,0 0,4 -4,0 z M 208,120 l 4,0 0,4 -4,0 z M 4,124 l 4,0 0,4 -4,0 z M 8,124 l 4,0 0,4 -4,0 z M 16,124 l 4,0 0,4 -4,0 z M 44,124 l 4,0 0,4 -4,0 z M 48,124 l 4,0 0,4 -4,0 z M 52,124 l 4,0 0,4 -4,0 z M 64,124 l 4,0 0,4 -4,0 z M 76,124 l 4,0 0,4 -4,0 z M 80,124 l 4,0 0,4 -4,0 z M 108,124 l 4,0 0,4 -4,0 z M 116,124 l 4,0 0,4 -4,0 z M 128,124 l 4,0 0,4 -4,0 z M 132,124 l 4,0 0,4 -4,0 z M 136,124 l 4,0 0,4 -4,0 z M 144,124 l 4,0 0,4 -4,0 z M 152,124 l 4,0 0,4 -4,0 z M 156,124 l 4,0 0,4 -4,0 z M 160,124 l 4,0 0,4 -4,0 z M 164,124 l 4,0 0,4 -4,0 z M 172,124 l 4,0 0,4 -4,0 z M 180,124 l 4,0 0,4 -4,0 z M 188,124 l 4,0 0,4 -4,0 z M 192,124 l 4,0 0,4 -4,0 z M 204,124 l 4,0 0,4 -4,0 z M 208,124 l 4,0 0,4 -4,0 z M 8,128 l 4,0 0,4 -4,0 z M 12,128 l 4,0 0,4 -4,0 z M 24,128 l 4,0 0,4 -4,0 z M 36,128 l 4,0 0,4 -4,0 z M 40,128 l 4,0 0,4 -4,0 z M 44,128 l 4,0 0,4 -4,0 z M 68,128 l 4,0 0,4 -4,0 z M 84,128 l 4,0 0,4 -4,0 z M 96,128 l 4,0 0,4 -4,0 z M 112,128 l 4,0 0,4 -4,0 z M 132,128 l 4,0 0,4 -4,0 z M 136,128 l 4,0 0,4 -4,0 z M 140,128 l 4,0 0,4 -4,0 z M 144,128 l 4,0 0,4 -4,0 z M 152,128 l 4,0 0,4 -4,0 z M 156,128 l 4,0 0,4 -4,0 z M 164,128 l 4,0 0,4 -4,0 z M 176,128 l 4,0 0,4 -4,0 z M 184,128 l 4,0 0,4 -4,0 z M 192,128 l 4,0 0,4 -4,0 z M 196,128 l 4,0 0,4 -4,0 z M 200,128 l 4,0 0,4 -4,0 z M 208,128 l 4,0 0,4 -4,0 z M 8,132 l 4,0 0,4 -4,0 z M 16,132 l 4,0 0,4 -4,0 z M 28,132 l 4,0 0,4 -4,0 z M 36,132 l 4,0 0,4 -4,0 z M 44,132 l 4,0 0,4 -4,0 z M 52,132 l 4,0 0,4 -4,0 z M 60,132 l 4,0 0,4 -4,0 z M 72,132 l 4,0 0,4 -4,0 z M 76,132 l 4,0 0,4 -4,0 z M 80,132 l 4,0 0,4 -4,0 z M 100,132 l 4,0 0,4 -4,0 z M 104,132 l 4,0 0,4 -4,0 z M 108,132 l 4,0 0,4 -4,0 z M 112,132 l 4,0 0,4 -4,0 z M 140,132 l 4,0 0,4 -4,0 z M 148,132 l 4,0 0,4 -4,0 z M 160,132 l 4,0 0,4 -4,0 z M 164,132 l 4,0 0,4 -4,0 z M 168,132 l 4,0 0,4 -4,0 z M 176,132 l 4,0 0,4 -4,0 z M 180,132 l 4,0 0,4 -4,0 z M 184,132 l 4,0 0,4 -4,0 z M 188,132 l 4,0 0,4 -4,0 z M 192,132 l 4,0 0,4 -4,0 z M 196,132 l 4,0 0,4 -4,0 z M 200,132 l 4,0 0,4 -4,0 z M 0,136 l 4,0 0,4 -4,0 z M 8,136 l 4,0 0,4 -4,0 z M 16,136 l 4,0 0,4 -4,0 z M 20,136 l 4,0 0,4 -4,0 z M 24,136 l 4,0 0,4 -4,0 z M 28,136 l 4,0 0,4 -4,0 z M 32,136 l 4,0 0,4 -4,0 z M 36,136 l 4,0 0,4 -4,0 z M 44,136 l 4,0 0,4 -4,0 z M 52,136 l 4,0 0,4 -4,0 z M 56,136 l 4,0 0,4 -4,0 z M 68,136 l 4,0 0,4 -4,0 z M 80,136 l 4,0 0,4 -4,0 z M 84,136 l 4,0 0,4 -4,0 z M 88,136 l 4,0 0,4 -4,0 z M 96,136 l 4,0 0,4 -4,0 z M 104,136 l 4,0 0,4 -4,0 z M 108,136 l 4,0 0,4 -4,0 z M 116,136 l 4,0 0,4 -4,0 z M 120,136 l 4,0 0,4 -4,0 z M 156,136 l 4,0 0,4 -4,0 z M 160,136 l 4,0 0,4 -4,0 z M 172,136 l 4,0 0,4 -4,0 z M 184,136 l 4,0 0,4 -4,0 z M 196,136 l 4,0 0,4 -4,0 z M 208,136 l 4,0 0,4 -4,0 z M 0,140 l 4,0 0,4 -4,0 z M 4,140 l 4,0 0,4 -4,0 z M 32,140 l 4,0 0,4 -4,0 z M 36,140 l 4,0 0,4 -4,0 z M 40,140 l 4,0 0,4 -4,0 z M 44,140 l 4,0 0,4 -4,0 z M 56,140 l 4,0 0,4 -4,0 z M 60,140 l 4,0 0,4 -4,0 z M 68,140 l 4,0 0,4 -4,0 z M 72,140 l 4,0 0,4 -4,0 z M 76,140 l 4,0 0,4 -4,0 z M 80,140 l 4,0 0,4 -4,0 z M 92,140 l 4,0 0,4 -4,0 z M 96,140 l 4,0 0,4 -4,0 z M 104,140 l 4,0 0,4 -4,0 z M 108,140 l 4,0 0,4 -4,0 z M 120,140 l 4,0 0,4 -4,0 z M 128,140 l 4,0 0,4 -4,0 z M 132,140 l 4,0 0,4 -4,0 z M 140,140 l 4,0 0,4 -4,0 z M 148,140 l 4,0 0,4 -4,0 z M 156,140 l 4,0 0,4 -4,0 z M 160,140 l 4,0 0,4 -4,0 z M 164,140 l 4,0 0,4 -4,0 z M 172,140 l 4,0 0,4 -4,0 z M 180,140 l 4,0 0,4 -4,0 z M 184,140 l 4,0 0,4 -4,0 z M 196,140 l 4,0 0,4 -4,0 z M 200,140 l 4,0 0,4 -4,0 z M 208,140 l 4,0 0,4 -4,0 z M 4,144 l 4,0 0,4 -4,0 z M 8,144 l 4,0 0,4 -4,0 z M 12,144 l 4,0 0,4 -4,0 z M 24,144 l 4,0 0,4 -4,0 z M 28,144 l 4,0 0,4 -4,0 z M 32,144 l 4,0 0,4 -4,0 z M 44,144 l 4,0 0,4 -4,0 z M 52,144 l 4,0 0,4 -4,0 z M 60,144 l 4,0 0,4 -4,0 z M 64,144 l 4,0 0,4 -4,0 z M 72,144 l 4,0 0,4 -4,0 z M 100,144 l 4,0 0,4 -4,0 z M 108,144 l 4,0 0,4 -4,0 z M 116,144 l 4,0 0,4 -4,0 z M 132,144 l 4,0 0,4 -4,0 z M 152,144 l 4,0 0,4 -4,0 z M 156,144 l 4,0 0,4 -4,0 z M 188,144 l 4,0 0,4 -4,0 z M 192,144 l 4,0 0,4 -4,0 z M 200,144 l 4,0 0,4 -4,0 z M 208,144 l 4,0 0,4 -4,0 z M 4,148 l 4,0 0,4 -4,0 z M 8,148 l 4,0 0,4 -4,0 z M 12,148 l 4,0 0,4 -4,0 z M 20,148 l 4,0 0,4 -4,0 z M 32,148 l 4,0 0,4 -4,0 z M 40,148 l 4,0 0,4 -4,0 z M 48,148 l 4,0 0,4 -4,0 z M 56,148 l 4,0 0,4 -4,0 z M 64,148 l 4,0 0,4 -4,0 z M 80,148 l 4,0 0,4 -4,0 z M 84,148 l 4,0 0,4 -4,0 z M 92,148 l 4,0 0,4 -4,0 z M 100,148 l 4,0 0,4 -4,0 z M 104,148 l 4,0 0,4 -4,0 z M 112,148 l 4,0 0,4 -4,0 z M 120,148 l 4,0 0,4 -4,0 z M 124,148 l 4,0 0,4 -4,0 z M 128,148 l 4,0 0,4 -4,0 z M 144,148 l 4,0 0,4 -4,0 z M 152,148 l 4,0 0,4 -4,0 z M 164,148 l 4,0 0,4 -4,0 z M 168,148 l 4,0 0,4 -4,0 z M 176,148 l 4,0 0,4 -4,0 z M 180,148 l 4,0 0,4 -4,0 z M 184,148 l 4,0 0,4 -4,0 z M 192,148 l 4,0 0,4 -4,0 z M 196,148 l 4,0 0,4 -4,0 z M 204,148 l 4,0 0,4 -4,0 z M 0,152 l 4,0 0,4 -4,0 z M 16,152 l 4,0 0,4 -4,0 z M 24,152 l 4,0 0,4 -4,0 z M 28,152 l 4,0 0,4 -4,0 z M 32,152 l 4,0 0,4 -4,0 z M 36,152 l 4,0 0,4 -4,0 z M 40,152 l 4,0 0,4 -4,0 z M 44,152 l 4,0 0,4 -4,0 z M 52,152 l 4,0 0,4 -4,0 z M 56,152 l 4,0 0,4 -4,0 z M 72,152 l 4,0 0,4 -4,0 z M 88,152 l 4,0 0,4 -4,0 z M 104,152 l 4,0 0,4 -4,0 z M 108,152 l 4,0 0,4 -4,0 z M 112,152 l 4,0 0,4 -4,0 z M 132,152 l 4,0 0,4 -4,0 z M 136,152 l 4,0 0,4 -4,0 z M 160,152 l 4,0 0,4 -4,0 z M 184,152 l 4,0 0,4 -4,0 z M 192,152 l 4,0 0,4 -4,0 z M 196,152 l 4,0 0,4 -4,0 z M 204,152 l 4,0 0,4 -4,0 z M 208,152 l 4,0 0,4 -4,0 z M 8,156 l 4,0 0,4 -4,0 z M 16,156 l 4,0 0,4 -4,0 z M 32,156 l 4,0 0,4 -4,0 z M 36,156 l 4,0 0,4 -4,0 z M 40,156 l 4,0 0,4 -4,0 z M 48,156 l 4,0 0,4 -4,0 z M 56,156 l 4,0 0,4 -4,0 z M 64,156 l 4,0 0,4 -4,0 z M 68,156 l 4,0 0,4 -4,0 z M 72,156 l 4,0 0,4 -4,0 z M 76,156 l 4,0 0,4 -4,0 z M 80,156 l 4,0 0,4 -4,0 z M 84,156 l 4,0 0,4 -4,0 z M 88,156 l 4,0 0,4 -4,0 z M 92,156 l 4,0 0,4 -4,0 z M 100,156 l 4,0 0,4 -4,0 z M 104,156 l 4,0 0,4 -4,0 z M 128,156 l 4,0 0,4 -4,0 z M 140,156 l 4,0 0,4 -4,0 z M 156,156 l 4,0 0,4 -4,0 z M 160,156 l 4,0 0,4 -4,0 z M 164,156 l 4,0 0,4 -4,0 z M 180,156 l 4,0 0,4 -4,0 z M 184,156 l 4,0 0,4 -4,0 z M 0,160 l 4,0 0,4 -4,0 z M 4,160 l 4,0 0,4 -4,0 z M 16,160 l 4,0 0,4 -4,0 z M 20,160 l 4,0 0,4 -4,0 z M 24,160 l 4,0 0,4 -4,0 z M 28,160 l 4,0 0,4 -4,0 z M 32,160 l 4,0 0,4 -4,0 z M 52,160 l 4,0 0,4 -4,0 z M 56,160 l 4,0 0,4 -4,0 z M 60,160 l 4,0 0,4 -4,0 z M 72,160 l 4,0 0,4 -4,0 z M 76,160 l 4,0 0,4 -4,0 z M 88,160 l 4,0 0,4 -4,0 z M 100,160 l 4,0 0,4 -4,0 z M 112,160 l 4,0 0,4 -4,0 z M 120,160 l 4,0 0,4 -4,0 z M 132,160 l 4,0 0,4 -4,0 z M 144,160 l 4,0 0,4 -4,0 z M 152,160 l 4,0 0,4 -4,0 z M 164,160 l 4,0 0,4 -4,0 z M 168,160 l 4,0 0,4 -4,0 z M 208,160 l 4,0 0,4 -4,0 z M 4,164 l 4,0 0,4 -4,0 z M 8,164 l 4,0 0,4 -4,0 z M 12,164 l 4,0 0,4 -4,0 z M 16,164 l 4,0 0,4 -4,0 z M 32,164 l 4,0 0,4 -4,0 z M 36,164 l 4,0 0,4 -4,0 z M 44,164 l 4,0 0,4 -4,0 z M 48,164 l 4,0 0,4 -4,0 z M 64,164 l 4,0 0,4 -4,0 z M 68,164 l 4,0 0,4 -4,0 z M 72,164 l 4,0 0,4 -4,0 z M 84,164 l 4,0 0,4 -4,0 z M 100,164 l 4,0 0,4 -4,0 z M 108,164 l 4,0 0,4 -4,0 z M 112,164 l 4,0 0,4 -4,0 z M 124,164 l 4,0 0,4 -4,0 z M 128,164 l 4,0 0,4 -4,0 z M 144,164 l 4,0 0,4 -4,0 z M 148,164 l 4,0 0,4 -4,0 z M 164,164 l 4,0 0,4 -4,0 z M 168,164 l 4,0 0,4 -4,0 z M 172,164 l 4,0 0,4 -4,0 z M 176,164 l 4,0 0,4 -4,0 z M 196,164 l 4,0 0,4 -4,0 z M 200,164 l 4,0 0,4 -4,0 z M 0,168 l 4,0 0,4 -4,0 z M 4,168 l 4,0 0,4 -4,0 z M 12,168 l 4,0 0,4 -4,0 z M 16,168 l 4,0 0,4 -4,0 z M 20,168 l 4,0 0,4 -4,0 z M 24,168 l 4,0 0,4 -4,0 z M 28,168 l 4,0 0,4 -4,0 z M 32,168 l 4,0 0,4 -4,0 z M 36,168 l 4,0 0,4 -4,0 z M 40,168 l 4,0 0,4 -4,0 z M 44,168 l 4,0 0,4 -4,0 z M 52,168 l 4,0 0,4 -4,0 z M 60,168 l 4,0 0,4 -4,0 z M 64,168 l 4,0 0,4 -4,0 z M 68,168 l 4,0 0,4 -4,0 z M 76,168 l 4,0 0,4 -4,0 z M 84,168 l 4,0 0,4 -4,0 z M 88,168 l 4,0 0,4 -4,0 z M 100,168 l 4,0 0,4 -4,0 z M 108,168 l 4,0 0,4 -4,0 z M 116,168 l 4,0 0,4 -4,0 z M 128,168 l 4,0 0,4 -4,0 z M 132,168 l 4,0 0,4 -4,0 z M 140,168 l 4,0 0,4 -4,0 z M 152,168 l 4,0 0,4 -4,0 z M 156,168 l 4,0 0,4 -4,0 z M 160,168 l 4,0 0,4 -4,0 z M 172,168 l 4,0 0,4 -4,0 z M 176,168 l 4,0 0,4 -4,0 z M 184,168 l 4,0 0,4 -4,0 z M 196,168 l 4,0 0,4 -4,0 z M 204,168 l 4,0 0,4 -4,0 z M 208,168 l 4,0 0,4 -4,0 z M 4,172 l 4,0 0,4 -4,0 z M 8,172 l 4,0 0,4 -4,0 z M 36,172 l 4,0 0,4 -4,0 z M 52,172 l 4,0 0,4 -4,0 z M 56,172 l 4,0 0,4 -4,0 z M 64,172 l 4,0 0,4 -4,0 z M 72,172 l 4,0 0,4 -4,0 z M 92,172 l 4,0 0,4 -4,0 z M 100,172 l 4,0 0,4 -4,0 z M 108,172 l 4,0 0,4 -4,0 z M 120,172 l 4,0 0,4 -4,0 z M 136,172 l 4,0 0,4 -4,0 z M 152,172 l 4,0 0,4 -4,0 z M 156,172 l 4,0 0,4 -4,0 z M 164,172 l 4,0 0,4 -4,0 z M 180,172 l 4,0 0,4 -4,0 z M 200,172 l 4,0 0,4 -4,0 z M 12,176 l 4,0 0,4 -4,0 z M 24,176 l 4,0 0,4 -4,0 z M 28,176 l 4,0 0,4 -4,0 z M 48,176 l 4,0 0,4 -4,0 z M 52,176 l 4,0 0,4 -4,0 z M 60,176 l 4,0 0,4 -4,0 z M 72,176 l 4,0 0,4 -4,0 z M 80,176 l 4,0 0,4 -4,0 z M 88,176 l 4,0 0,4 -4,0 z M 92,176 l 4,0 0,4 -4,0 z M 96,176 l 4,0 0,4 -4,0 z M 100,176 l 4,0 0,4 -4,0 z M 104,176 l 4,0 0,4 -4,0 z M 108,176 l 4,0 0,4 -4,0 z M 112,176 l 4,0 0,4 -4,0 z M 116,176 l 4,0 0,4 -4,0 z M 120,176 l 4,0 0,4 -4,0 z M 128,176 l 4,0 0,4 -4,0 z M 136,176 l 4,0 0,4 -4,0 z M 144,176 l 4,0 0,4 -4,0 z M 152,176 l 4,0 0,4 -4,0 z M 156,176 l 4,0 0,4 -4,0 z M 160,176 l 4,0 0,4 -4,0 z M 176,176 l 4,0 0,4 -4,0 z M 180,176 l 4,0 0,4 -4,0 z M 184,176 l 4,0 0,4 -4,0 z M 188,176 l 4,0 0,4 -4,0 z M 192,176 l 4,0 0,4 -4,0 z M 200,176 l 4,0 0,4 -4,0 z M 32,180 l 4,0 0,4 -4,0 z M 44,180 l 4,0 0,4 -4,0 z M 48,180 l 4,0 0,4 -4,0 z M 52,180 l 4,0 0,4 -4,0 z M 60,180 l 4,0 0,4 -4,0 z M 76,180 l 4,0 0,4 -4,0 z M 80,180 l 4,0 0,4 -4,0 z M 96,180 l 4,0 0,4 -4,0 z M 112,180 l 4,0 0,4 -4,0 z M 120,180 l 4,0 0,4 -4,0 z M 132,180 l 4,0 0,4 -4,0 z M 148,180 l 4,0 0,4 -4,0 z M 156,180 l 4,0 0,4 -4,0 z M 160,180 l 4,0 0,4 -4,0 z M 176,180 l 4,0 0,4 -4,0 z M 192,180 l 4,0 0,4 -4,0 z M 204,180 l 4,0 0,4 -4,0 z M 208,180 l 4,0 0,4 -4,0 z M 0,184 l 4,0 0,4 -4,0 z M 4,184 l 4,0 0,4 -4,0 z M 8,184 l 4,0 0,4 -4,0 z M 12,184 l 4,0 0,4 -4,0 z M 16,184 l 4,0 0,4 -4,0 z M 20,184 l 4,0 0,4 -4,0 z M 24,184 l 4,0 0,4 -4,0 z M 32,184 l 4,0 0,4 -4,0 z M 36,184 l 4,0 0,4 -4,0 z M 44,184 l 4,0 0,4 -4,0 z M 52,184 l 4,0 0,4 -4,0 z M 60,184 l 4,0 0,4 -4,0 z M 68,184 l 4,0 0,4 -4,0 z M 76,184 l 4,0 0,4 -4,0 z M 80,184 l 4,0 0,4 -4,0 z M 84,184 l 4,0 0,4 -4,0 z M 92,184 l 4,0 0,4 -4,0 z M 96,184 l 4,0 0,4 -4,0 z M 104,184 l 4,0 0,4 -4,0 z M 112,184 l 4,0 0,4 -4,0 z M 120,184 l 4,0 0,4 -4,0 z M 136,184 l 4,0 0,4 -4,0 z M 144,184 l 4,0 0,4 -4,0 z M 152,184 l 4,0 0,4 -4,0 z M 160,184 l 4,0 0,4 -4,0 z M 176,184 l 4,0 0,4 -4,0 z M 184,184 l 4,0 0,4 -4,0 z M 192,184 l 4,0 0,4 -4,0 z M 204,184 l 4,0 0,4 -4,0 z M 208,184 l 4,0 0,4 -4,0 z M 0,188 l 4,0 0,4 -4,0 z M 24,188 l 4,0 0,4 -4,0 z M 36,188 l 4,0 0,4 -4,0 z M 40,188 l 4,0 0,4 -4,0 z M 52,188 l 4,0 0,4 -4,0 z M 60,188 l 4,0 0,4 -4,0 z M 64,188 l 4,0 0,4 -4,0 z M 76,188 l 4,0 0,4 -4,0 z M 92,188 l 4,0 0,4 -4,0 z M 96,188 l 4,0 0,4 -4,0 z M 112,188 l 4,0 0,4 -4,0 z M 120,188 l 4,0 0,4 -4,0 z M 124,188 l 4,0 0,4 -4,0 z M 128,188 l 4,0 0,4 -4,0 z M 152,188 l 4,0 0,4 -4,0 z M 156,188 l 4,0 0,4 -4,0 z M 160,188 l 4,0 0,4 -4,0 z M 176,188 l 4,0 0,4 -4,0 z M 192,188 l 4,0 0,4 -4,0 z M 196,188 l 4,0 0,4 -4,0 z M 204,188 l 4,0 0,4 -4,0 z M 208,188 l 4,0 0,4 -4,0 z M 0,192 l 4,0 0,4 -4,0 z M 8,192 l 4,0 0,4 -4,0 z M 12,192 l 4,0 0,4 -4,0 z M 16,192 l 4,0 0,4 -4,0 z M 24,192 l 4,0 0,4 -4,0 z M 32,192 l 4,0 0,4 -4,0 z M 36,192 l 4,0 0,4 -4,0 z M 56,192 l 4,0 0,4 -4,0 z M 68,192 l 4,0 0,4 -4,0 z M 84,192 l 4,0 0,4 -4,0 z M 92,192 l 4,0 0,4 -4,0 z M 96,192 l 4,0 0,4 -4,0 z M 100,192 l 4,0 0,4 -4,0 z M 104,192 l 4,0 0,4 -4,0 z M 108,192 l 4,0 0,4 -4,0 z M 112,192 l 4,0 0,4 -4,0 z M 116,192 l 4,0 0,4 -4,0 z M 120,192 l 4,0 0,4 -4,0 z M 140,192 l 4,0 0,4 -4,0 z M 144,192 l 4,0 0,4 -4,0 z M 148,192 l 4,0 0,4 -4,0 z M 164,192 l 4,0 0,4 -4,0 z M 168,192 l 4,0 0,4 -4,0 z M 176,192 l 4,0 0,4 -4,0 z M 180,192 l 4,0 0,4 -4,0 z M 184,192 l 4,0 0,4 -4,0 z M 188,192 l 4,0 0,4 -4,0 z M 192,192 l 4,0 0,4 -4,0 z M 208,192 l 4,0 0,4 -4,0 z M 0,196 l 4,0 0,4 -4,0 z M 8,196 l 4,0 0,4 -4,0 z M 12,196 l 4,0 0,4 -4,0 z M 16,196 l 4,0 0,4 -4,0 z M 24,196 l 4,0 0,4 -4,0 z M 32,196 l 4,0 0,4 -4,0 z M 36,196 l 4,0 0,4 -4,0 z M 44,196 l 4,0 0,4 -4,0 z M 48,196 l 4,0 0,4 -4,0 z M 60,196 l 4,0 0,4 -4,0 z M 72,196 l 4,0 0,4 -4,0 z M 76,196 l 4,0 0,4 -4,0 z M 80,196 l 4,0 0,4 -4,0 z M 92,196 l 4,0 0,4 -4,0 z M 104,196 l 4,0 0,4 -4,0 z M 108,196 l 4,0 0,4 -4,0 z M 116,196 l 4,0 0,4 -4,0 z M 120,196 l 4,0 0,4 -4,0 z M 140,196 l 4,0 0,4 -4,0 z M 144,196 l 4,0 0,4 -4,0 z M 148,196 l 4,0 0,4 -4,0 z M 156,196 l 4,0 0,4 -4,0 z M 160,196 l 4,0 0,4 -4,0 z M 164,196 l 4,0 0,4 -4,0 z M 168,196 l 4,0 0,4 -4,0 z M 176,196 l 4,0 0,4 -4,0 z M 180,196 l 4,0 0,4 -4,0 z M 192,196 l 4,0 0,4 -4,0 z M 204,196 l 4,0 0,4 -4,0 z M 0,200 l 4,0 0,4 -4,0 z M 8,200 l 4,0 0,4 -4,0 z M 12,200 l 4,0 0,4 -4,0 z M 16,200 l 4,0 0,4 -4,0 z M 24,200 l 4,0 0,4 -4,0 z M 32,200 l 4,0 0,4 -4,0 z M 36,200 l 4,0 0,4 -4,0 z M 52,200 l 4,0 0,4 -4,0 z M 68,200 l 4,0 0,4 -4,0 z M 80,200 l 4,0 0,4 -4,0 z M 84,200 l 4,0 0,4 -4,0 z M 88,200 l 4,0 0,4 -4,0 z M 92,200 l 4,0 0,4 -4,0 z M 104,200 l 4,0 0,4 -4,0 z M 116,200 l 4,0 0,4 -4,0 z M 124,200 l 4,0 0,4 -4,0 z M 128,200 l 4,0 0,4 -4,0 z M 132,200 l 4,0 0,4 -4,0 z M 144,200 l 4,0 0,4 -4,0 z M 152,200 l 4,0 0,4 -4,0 z M 160,200 l 4,0 0,4 -4,0 z M 172,200 l 4,0 0,4 -4,0 z M 176,200 l 4,0 0,4 -4,0 z M 180,200 l 4,0 0,4 -4,0 z M 184,200 l 4,0 0,4 -4,0 z M 196,200 l 4,0 0,4 -4,0 z M 204,200 l 4,0 0,4 -4,0 z M 0,204 l 4,0 0,4 -4,0 z M 24,204 l 4,0 0,4 -4,0 z M 32,204 l 4,0 0,4 -4,0 z M 36,204 l 4,0 0,4 -4,0 z M 60,204 l 4,0 0,4 -4,0 z M 68,204 l 4,0 0,4 -4,0 z M 72,204 l 4,0 0,4 -4,0 z M 76,204 l 4,0 0,4 -4,0 z M 80,204 l 4,0 0,4 -4,0 z M 84,204 l 4,0 0,4 -4,0 z M 96,204 l 4,0 0,4 -4,0 z M 100,204 l 4,0 0,4 -4,0 z M 112,204 l 4,0 0,4 -4,0 z M 120,204 l 4,0 0,4 -4,0 z M 128,204 l 4,0 0,4 -4,0 z M 132,204 l 4,0 0,4 -4,0 z M 140,204 l 4,0 0,4 -4,0 z M 152,204 l 4,0 0,4 -4,0 z M 156,204 l 4,0 0,4 -4,0 z M 164,204 l 4,0 0,4 -4,0 z M 172,204 l 4,0 0,4 -4,0 z M 180,204 l 4,0 0,4 -4,0 z M 196,204 l 4,0 0,4 -4,0 z M 204,204 l 4,0 0,4 -4,0 z M 208,204 l 4,0 0,4 -4,0 z M 0,208 l 4,0 0,4 -4,0 z M 4,208 l 4,0 0,4 -4,0 z M 8,208 l 4,0 0,4 -4,0 z M 12,208 l 4,0 0,4 -4,0 z M 16,208 l 4,0 0,4 -4,0 z M 20,208 l 4,0 0,4 -4,0 z M 24,208 l 4,0 0,4 -4,0 z M 32,208 l 4,0 0,4 -4,0 z M 36,208 l 4,0 0,4 -4,0 z M 40,208 l 4,0 0,4 -4,0 z M 52,208 l 4,0 0,4 -4,0 z M 56,208 l 4,0 0,4 -4,0 z M 60,208 l 4,0 0,4 -4,0 z M 84,208 l 4,0 0,4 -4,0 z M 88,208 l 4,0 0,4 -4,0 z M 92,208 l 4,0 0,4 -4,0 z M 96,208 l 4,0 0,4 -4,0 z M 100,208 l 4,0 0,4 -4,0 z M 104,208 l 4,0 0,4 -4,0 z M 108,208 l 4,0 0,4 -4,0 z M 128,208 l 4,0 0,4 -4,0 z M 132,208 l 4,0 0,4 -4,0 z M 140,208 l 4,0 0,4 -4,0 z M 148,208 l 4,0 0,4 -4,0 z M 152,208 l 4,0 0,4 -4,0 z M 156,208 l 4,0 0,4 -4,0 z M 160,208 l 4,0 0,4 -4,0 z M 164,208 l 4,0 0,4 -4,0 z M 168,208 l 4,0 0,4 -4,0 z M 172,208 l 4,0 0,4 -4,0 z M 176,208 l 4,0 0,4 -4,0 z M 192,208 l 4,0 0,4 -4,0 z M 204,208 l 4,0 0,4 -4,0 z " />
	</g>
</svg>
